<svg id="Calque_1" data-name="Calque 1" xmlns="http://www.w3.org/2000/svg" viewBox="0 0 316.08 315.53"><defs><style>.cls-1{fill:#cecce7;}.cls-1,.cls-5{stroke:#1d1d1b;}.cls-1,.cls-2,.cls-3,.cls-4,.cls-5{stroke-miterlimit:10;}.cls-1,.cls-3,.cls-5{stroke-width:4px;}.cls-2,.cls-3,.cls-4{fill:#1d1d1b;stroke:#fff;}.cls-2{stroke-width:5px;}.cls-4{stroke-width:1.25px;}.cls-5{fill:none;}</style></defs><path class="cls-1" d="M309.72,157.85,343,304a9.5,9.5,0,0,1-3,9.26l-113,100a9.55,9.55,0,0,1-9.2,1.95L71.09,368.75a9.54,9.54,0,0,1-6.43-7L31.39,215.67a9.55,9.55,0,0,1,3-9.27l113-100a9.55,9.55,0,0,1,9.2-2l146.69,46.38A9.54,9.54,0,0,1,309.72,157.85Z" transform="translate(-29.15 -102.05)"/><path class="cls-2" d="M71.52,186.31A18.21,18.21,0,0,1,81.14,191c6.16,5.5-2.61,14.34-8.27,8.42a6.27,6.27,0,0,0-3.28-1.33c-2-.42-4.39-.75-9,5.16-4.89,6.17-5.9,17.42-3.54,22.84,1.1,2.67,2.19,3.5,4,3.58,1.51.25,5.39-.41,11-5.16,6.16-5.42,14.09,4,7.68,9-6.92,5.92-13.67,8.75-20.16,8S48.33,235.89,46,230.73c-4.47-10.67-2.79-24.59,5.31-34.92a25,25,0,0,1,10.46-8.09A15.23,15.23,0,0,1,67,186.31,16.48,16.48,0,0,1,71.52,186.31Z" transform="translate(-29.15 -102.05)"/><path class="cls-2" d="M126.11,193.14a29.45,29.45,0,0,1,5.82,16.5c.68,12.17-5,26.34-19.15,32.17a19.2,19.2,0,0,1-21.08-4.33c-4.9-5.17-7.09-12.17-7.6-19.5a34.53,34.53,0,0,1,5.23-21.34,26.47,26.47,0,0,1,21.26-11.5A18.91,18.91,0,0,1,126.11,193.14Zm-26.82,10c-2.36,3.67-3.55,9-3.21,14.17s2.2,9.83,4.39,12.17c2,2.33,3.54,3,7.76,1.33,8.77-3.5,12.15-12.17,11.64-20.33a18.4,18.4,0,0,0-3.38-10.34c-1.68-2.33-3.2-3.17-5.56-3.17C105,197.14,101.82,199.47,99.29,203.14Z" transform="translate(-29.15 -102.05)"/><path class="cls-2" d="M168,198.14c2.36,7.67-9.45,11-11.47,3.33-1.35-4.66-3.71-4.83-6.24-4.33a4.76,4.76,0,0,0-3,1.5,1.92,1.92,0,0,0-.34,2.17,7.53,7.53,0,0,0,3.21,5,30.7,30.7,0,0,0,7.25,3.17,64.43,64.43,0,0,1,9.62,3.16c3.2,1.5,7.08,4.67,8.1,9.34a16.32,16.32,0,0,1-3.21,13.16,21.37,21.37,0,0,1-10.8,7.84c-8.77,2.83-20.58-.33-26.48-11.67-3.88-7.17,7.08-12.67,10.63-5.5,3.71,7.17,7.93,7.33,12,6a10.68,10.68,0,0,0,5.06-3.67,4.51,4.51,0,0,0,1.19-3.83c0-.17.16-.17-1.52-1-1.69-.67-4.73-1.5-8.1-2.67a36.16,36.16,0,0,1-10.8-4.83,21.07,21.07,0,0,1-7.93-12.17,14.88,14.88,0,0,1,3-12,15.92,15.92,0,0,1,10-5.67,14.88,14.88,0,0,1,2.87-.33A18.18,18.18,0,0,1,168,198.14Z" transform="translate(-29.15 -102.05)"/><path class="cls-2" d="M144.88,246.85c3.59,5.77,1.9,12.31-1.27,16.93-2.53,3.46-5.91,6.35-9.07,9.23,1.68,2.5,2.37,3.55,4.45,6.52a10.47,10.47,0,0,0,2.06,1.93,34,34,0,0,0,4.46-5.56,21.44,21.44,0,0,0,2.75-7.51c-1.06-7.11,11-8.07,11.18-.77.43,4.43-1.47,8.66-3.8,13.08-1.68,2.7-4,5-6.12,7.7a22.23,22.23,0,0,0,4.44,1.54c7.59-1,8.86,9.62,1.26,10.19-5.06.58-9.5-1.34-13.51-3.84-.21,0-.42-.39-.63-.58-3,2.11-5.7,4.62-9.08,5.58-5.27,1.34-12,.38-16.25-3.85a15,15,0,0,1-4.64-8.46,13.48,13.48,0,0,1,1.69-8.28c1.9-3.65,5.06-6.34,8.23-9.23-1.9-3.65-5.28-6.92-6.12-10.39-1.48-5.38-1.06-10,.84-13.65a14.76,14.76,0,0,1,9.08-7.6,19.77,19.77,0,0,1,5.91-.77C136.44,239.25,141.93,241.85,144.88,246.85Zm-21.95,38.28a3.9,3.9,0,0,0-.63,2.5c0,.77,0,.77,1.68,2.69s2.33,1.73,4.65,1c1.05-.19,2.74-1.73,4-2.5-.66-.89-2.19-3.23-2.83-4-1.61-2-1.61-2-3.08-3.7A51.08,51.08,0,0,0,122.93,285.13Zm5.49-35.39a3.56,3.56,0,0,0-2.54,1.92,11,11,0,0,0,0,7.12c.21,1.34,2.11,3.27,3,4.81,1.9-1.93,4.22-3.85,5.28-5.39,2.1-2.89,2.32-4,.84-6.35-.84-1.35-3.59-2.5-5.7-2.31C128.84,249.54,128.63,249.74,128.42,249.74Z" transform="translate(-29.15 -102.05)"/><path class="cls-2" d="M190.28,251.61a21.4,21.4,0,0,1,7.25,18,24.24,24.24,0,0,1-9.11,17,26,26,0,0,1-15.35,5c-.17,2.33-.17,4.67-.34,6.67-.5,8.17-13.16,7-12-1.17,1-11.33.85-37.17.34-44.84v-.66a5.74,5.74,0,0,1,6.07-5.67h.34a12.72,12.72,0,0,1,2.53-.17C178.47,245.44,185.38,247.6,190.28,251.61Zm-16.87,28.17a11.54,11.54,0,0,0,7.59-2.5,12.51,12.51,0,0,0,4.72-8.51,9.92,9.92,0,0,0-3.2-8.16c-1.86-1.5-4.73-2.84-9.28-3C173.41,263.61,173.58,271.61,173.41,279.78Z" transform="translate(-29.15 -102.05)"/><path class="cls-3" d="M210.36,291.05c0,1.53.33,2.93,1.06,3.24,1,.4.94.23,2.53.23,3.64,0,7.32-.14,11-.22,1.79,0,3.58-.16,5.36-.16,2.75,0,4,2.33,4,4.49a4.11,4.11,0,0,1-3.71,4.42c-1.85.24-3.7.24-5.55.32-3.77.08-7.35.08-11.12.08-7,0-13.22-3-13.22-12,0-13.72.13-27.13.19-40.85,0-2,1.15-4.49,3.9-4.49s5.57-.31,5.9,4Z" transform="translate(-29.15 -102.05)"/><path class="cls-2" d="M264.8,246.83a8.11,8.11,0,0,1,3.37,2.83c11.14,15.5,14.68,33.84,16,45.17,1,7.84-11.14,9.34-11.81,1.34-.34-2.34-.85-5.17-1.52-8a40.05,40.05,0,0,1-12.48,1,24.12,24.12,0,0,1-6.84-1.34c-1.52,4-2.86,7.84-4.21,11.5-2.53,7.84-14.34,3.34-11.14-4.16,3.71-9.84,7.76-22.67,11.64-32.51,2-4.83,3.71-8.83,6.16-12,1.86-2.5,4.72-4.66,8.1-4.5A5,5,0,0,1,264.8,246.83ZM259.06,267c-1.18,3-2.36,6.33-3.54,9.67a11.1,11.1,0,0,0,3.71.83,31.57,31.57,0,0,0,8.44-.83,87.43,87.43,0,0,0-6.42-14.17C260.58,264.16,259.9,264.83,259.06,267Z" transform="translate(-29.15 -102.05)"/><path class="cls-2" d="M321.63,247.6h.71q5,.79,5,4.93,0,11.8-5.81,42.67-3.09,18.78-6.64,28-10.06,26.49-32.51,26.49-15.35,0-19.82-13.95a26.15,26.15,0,0,1-1-6.8v-1.4a31.12,31.12,0,0,1,6.65-19.11q6.67-7.5,14.12-7.51,8,0,14.12,8.68a4.62,4.62,0,0,1,.71,2.58q0,3.42-5,5l-1.18.12q-3.39,0-5.7-3.64a4.55,4.55,0,0,0-3-1.52c-1.37,0-3.35,1.44-5.94,4.34A23,23,0,0,0,273,328q0,6.54,4.51,9.62a12.17,12.17,0,0,0,4.39.82q11.42,0,18.15-10.32,3.42-5.65,6.53-17,2-8.58,3.68-18.64-6,5.75-11.63,5.75-9.64,0-13.88-12a28.51,28.51,0,0,1-1.31-8.79q0-3.22,1.78-17.12a26.17,26.17,0,0,0,.24-4.33l-.12-3.64c0-1.84,1.15-3.2,3.44-4.1a3,3,0,0,1,1.31-.24h1.18q3.6,0,5.46,4.11l.24,2.22v2q0,3.23-1.9,17.11l-.12,4.22q0,5.75,2.73,8.91l.48.24c1.42-.35,3.2-1.57,5.34-3.64q4.11-4,7.71-16.06a170.31,170.31,0,0,1,5.22-16.64A6.23,6.23,0,0,1,321.63,247.6Z" transform="translate(-29.15 -102.05)"/><rect class="cls-4" x="173.99" y="278.43" height="0.36" transform="translate(318.82 455.17) rotate(180)"/><path class="cls-5" d="M309.72,157.85,343,304a9.5,9.5,0,0,1-3,9.26l-113,100a9.55,9.55,0,0,1-9.2,1.95L71.09,368.75a9.54,9.54,0,0,1-6.43-7L31.39,215.67a9.55,9.55,0,0,1,3-9.27l113-100a9.55,9.55,0,0,1,9.2-2l146.69,46.38A9.54,9.54,0,0,1,309.72,157.85Z" transform="translate(-29.15 -102.05)"/></svg>